<svg width="100" height="23" viewBox="0 0 100 23" fill="none" xmlns="http://www.w3.org/2000/svg">
<path d="M77.4352 22.5972H73.9321V6.84921H77.4352V22.5972Z" fill="black"/>
<path d="M7.60353 10.0782C7.06192 10.0707 6.52477 10.1777 6.02667 10.3921C5.52857 10.6066 5.08055 10.9237 4.71147 11.3232C3.92396 12.1442 3.53021 13.2798 3.53021 14.7164C3.53021 16.153 3.92396 17.316 4.72505 18.1506C5.09981 18.5548 5.55432 18.8756 6.05938 19.0924C6.56445 19.3091 7.10892 19.4171 7.65784 19.4093C8.68975 19.4093 9.51799 19.122 10.1426 18.561C10.7232 18.0508 11.1511 17.3874 11.3781 16.6455L14.4739 17.7811C14.0665 19.1083 13.279 20.2576 12.1113 21.2153C10.9437 22.1731 9.46368 22.6519 7.65784 22.6519C5.4854 22.6519 3.66599 21.8994 2.19959 20.3807C0.733198 18.862 0 16.9739 0 14.7164C0 12.4315 0.71962 10.5434 2.17244 9.05202C3.62525 7.56068 5.41752 6.80817 7.57637 6.80817C9.42295 6.80817 10.9301 7.28704 12.0978 8.24478C13.2048 9.12151 14.0003 10.336 14.3652 11.7063L11.2016 12.8693C11.0117 12.1117 10.6058 11.4268 10.0339 10.8991C9.43788 10.3518 8.6368 10.0782 7.60353 10.0782Z" fill="black"/>
<path d="M20.2865 18.1095C20.6768 18.5075 21.1415 18.8238 21.6537 19.0401C22.1659 19.2563 22.7154 19.3683 23.2708 19.3696C23.8261 19.3709 24.3762 19.2614 24.8893 19.0475C25.4025 18.8335 25.8686 18.5194 26.2607 18.1232C27.0754 17.2886 27.4827 16.1393 27.4827 14.648C27.4827 13.184 27.0754 12.0484 26.2607 11.2275C25.4637 10.4383 24.391 9.99614 23.2736 9.99614C22.1562 9.99614 21.0835 10.4383 20.2865 11.2275C19.4718 12.0484 19.0645 13.184 19.0645 14.648C19.0645 16.1119 19.4718 17.2749 20.2865 18.1095ZM23.2736 6.80817C25.5411 6.80817 27.4148 7.547 28.8812 9.02465C30.3476 10.5023 31.0944 12.3767 31.0944 14.6616C31.0944 16.9465 30.3612 18.821 28.8812 20.3123C27.4012 21.8037 25.5411 22.5425 23.2736 22.5425C21.0333 22.5425 19.1731 21.8037 17.6931 20.3123C16.2132 18.821 15.48 16.9329 15.48 14.6616C15.48 12.3904 16.2132 10.516 17.6931 9.02465C19.1731 7.53331 21.0197 6.80817 23.2736 6.80817Z" fill="black"/>
<path d="M40.2322 6.90394V10.5023C39.8502 10.4432 39.4645 10.4112 39.0781 10.4065C36.4168 10.4065 35.0998 11.72 35.0998 14.6343V22.5425H31.5696V6.84921H35.0048V9.3667C35.3425 8.57431 35.9293 7.91571 36.6748 7.49227C37.47 7.0275 38.3762 6.79092 39.2953 6.80817C39.6101 6.80545 39.9243 6.83756 40.2322 6.90394Z" fill="black"/>
<path d="M45.0523 13.0472H52.9138C52.9013 12.6044 52.7998 12.1687 52.6154 11.7666C52.431 11.3644 52.1676 11.0042 51.8411 10.7075C51.1758 10.0782 50.2118 9.76348 48.9627 9.76348C47.8221 9.76348 46.8988 10.0919 46.2064 10.7486C45.5139 11.4053 45.1202 12.177 45.0523 13.0472ZM53.3347 16.9055L56.5526 17.8496C56.091 19.2041 55.2356 20.326 53.9728 21.2153C52.7101 22.1047 51.1623 22.5425 49.3157 22.5425C47.0346 22.5425 45.1066 21.8173 43.518 20.3807C41.9294 18.9441 41.1283 17.0149 41.1283 14.5932C41.1283 12.322 41.9022 10.4476 43.4501 8.99729C44.9175 7.57098 46.8833 6.78451 48.9219 6.80817C51.3795 6.80817 53.294 7.50595 54.6789 8.88784C56.0638 10.2697 56.7549 12.1442 56.7549 14.5029C56.7549 15.1323 56.7278 15.5017 56.6599 15.6249H44.9559C44.9705 16.1543 45.0968 16.6745 45.3262 17.151C45.5556 17.6275 45.8829 18.0493 46.2865 18.3886C47.1321 19.1181 48.215 19.5078 49.3279 19.4832C51.3795 19.4914 52.7237 18.6294 53.3347 16.9055Z" fill="black"/>
<path d="M61.0876 22.5972H57.5031V0H61.1147V9.09854C61.4949 8.46916 62.1195 7.93556 62.9885 7.51142C63.9216 7.06772 64.944 6.84763 65.9756 6.86837C68.2159 6.86837 69.9674 7.59351 71.2301 9.05749C72.4929 10.5215 73.1174 12.3822 73.1174 14.6534C73.1174 16.9657 72.4521 18.8538 71.1351 20.3451C69.8181 21.8365 68.053 22.5616 65.8534 22.5616C63.6538 22.5616 62.0652 21.7818 61.0876 20.2083V22.5972ZM68.243 18.1232C69.017 17.2749 69.3971 16.1256 69.3971 14.6753C69.3971 13.225 69.017 12.0894 68.2566 11.2548C67.4963 10.4202 66.4915 10.0098 65.2424 10.0098C64.0339 10.0098 63.0428 10.4202 62.2553 11.2548C61.4678 12.0894 61.0876 13.225 61.0876 14.6753C61.0876 16.1256 61.4813 17.2475 62.2553 18.1095C63.0292 18.9715 64.0339 19.3956 65.2424 19.3956C66.4779 19.3956 67.4691 18.9715 68.243 18.1232Z" fill="black"/>
<path d="M94 22.5835H78.5485V19.4914L88.3109 9.96871H78.3856V6.84921H93.9728V9.85105L84.0883 19.4558H94V22.589V22.5835Z" fill="black"/>
<path d="M95.7239 21.9285C95.4895 21.6997 95.3044 21.4253 95.18 21.1224C95.0556 20.8195 94.9945 20.4943 95.0004 20.1669C94.9944 19.8375 95.0554 19.5103 95.1798 19.2052C95.3041 18.9001 95.4893 18.6235 95.7239 18.3921C95.9496 18.1526 96.2232 17.9633 96.5269 17.8365C96.8306 17.7096 97.1576 17.6481 97.4867 17.6559C98.1529 17.6566 98.7916 17.9213 99.2626 18.3921C99.7337 18.8628 99.9986 19.5011 99.9993 20.1669C100.007 20.4957 99.9455 20.8225 99.8186 21.126C99.6917 21.4296 99.5023 21.703 99.2627 21.9285C99.0304 22.162 98.7534 22.3464 98.4483 22.4706C98.1432 22.5949 97.8162 22.6564 97.4867 22.6516C97.1591 22.6575 96.8337 22.5964 96.5306 22.4721C96.2274 22.3477 95.9529 22.1628 95.7239 21.9285V21.9285Z" fill="#BFBFBF"/>
</svg>
